<!--?xml version="1.0" standalone="no"?-->
<svg id="sw-js-blob-svg" viewBox="0 0 100 100" xmlns="http://www.w3.org/2000/svg" version="1.1">
    <defs> 
        <linearGradient id="sw-gradient" x1="0" x2="1" y1="1" y2="0">
            <stop id="stop1" stop-color="rgba(254, 226, 101, 1)" offset="0%"></stop>
            <stop id="stop2" stop-color="rgba(39, 209, 179, 1)" offset="100%"></stop>
        </linearGradient>
    </defs>
<path fill="url(#sw-gradient)" d="M24.5,-38.2C31.5,-33.5,37,-26.5,40.5,-18.6C44,-10.7,45.5,-2,42.9,5.1C40.3,12.2,33.5,17.7,27,21.2C20.6,24.7,14.4,26.3,7.6,30.3C0.9,34.2,-6.4,40.5,-14.1,41.3C-21.7,42.1,-29.6,37.3,-30.9,30C-32.3,22.7,-27,12.9,-26.6,4.8C-26.3,-3.3,-30.9,-9.8,-30.8,-15.8C-30.7,-21.8,-25.9,-27.3,-20,-32.6C-14.1,-37.8,-7,-42.8,0.8,-44.1C8.7,-45.4,17.4,-43,24.5,-38.2Z" width="100%" height="100%" transform="translate(50 50)" stroke-width="0" style="transition: all 0.3s ease 0s;" stroke="url(#sw-gradient)"></path>
</svg>