<!--?xml version="1.0" standalone="no"?-->
              <svg id="sw-js-blob-svg" viewBox="0 0 100 100" xmlns="http://www.w3.org/2000/svg" version="1.1">
                    <defs> 
                        <linearGradient id="sw-gradient" x1="0" x2="1" y1="1" y2="0">
                            <stop id="stop1" stop-color="rgba(251, 102, 114, 1)" offset="0%"></stop>
                            <stop id="stop2" stop-color="rgba(252, 151, 68, 1)" offset="100%"></stop>
                        </linearGradient>
                    </defs>
                <path fill="url(#sw-gradient)" d="M18.8,-26.8C25,-25.4,31,-21.1,33.7,-15.4C36.4,-9.6,35.7,-2.3,33.8,4.2C31.8,10.7,28.7,16.4,24.1,19.9C19.5,23.3,13.5,24.5,7.7,26.3C1.8,28.1,-4,30.6,-7.9,28.6C-11.8,26.7,-13.9,20.3,-17.1,15.5C-20.3,10.7,-24.5,7.4,-25.4,3.4C-26.3,-0.5,-23.9,-5.2,-22.6,-11.3C-21.4,-17.5,-21.2,-25.1,-17.6,-27.8C-14.1,-30.4,-7,-27.9,-0.3,-27.4C6.3,-26.9,12.7,-28.2,18.8,-26.8Z" width="100%" height="100%" transform="translate(50 50)" stroke-width="0" style="transition: all 0.3s ease 0s;" stroke="url(#sw-gradient)"></path>
              </svg>