<!--?xml version="1.0" standalone="no"?-->
              <svg id="sw-js-blob-svg" viewBox="0 0 100 100" xmlns="http://www.w3.org/2000/svg" version="1.1">
                    <defs> 
                        <linearGradient id="sw-gradient" x1="0" x2="1" y1="1" y2="0">
                            <stop id="stop1" stop-color="rgba(28, 150, 249, 1)" offset="0%"></stop>
                            <stop id="stop2" stop-color="rgba(15, 67, 58, 1)" offset="100%"></stop>
                        </linearGradient>
                    </defs>
                <path fill="url(#sw-gradient)" d="M18.2,-30.8C21.8,-25.9,21.9,-18,24.8,-11.4C27.6,-4.9,33.2,0.4,34.4,6.3C35.6,12.2,32.5,18.8,27.8,24.1C23.2,29.4,17.1,33.3,10.6,34.5C4.1,35.7,-2.7,34.2,-8.3,31.2C-13.9,28.2,-18.2,23.9,-23.2,19.4C-28.2,14.9,-33.9,10.3,-34.3,5.2C-34.7,0,-29.7,-5.6,-27.3,-13.1C-24.9,-20.7,-25.1,-30,-21,-34.8C-16.9,-39.5,-8.4,-39.6,-0.6,-38.7C7.2,-37.7,14.5,-35.8,18.2,-30.8Z" width="100%" height="100%" transform="translate(50 50)" stroke-width="0" style="transition: all 0.3s ease 0s;" stroke="url(#sw-gradient)"></path>
              </svg>